<?xml version="1.0" encoding="utf-8"?>
<!-- Generator: Adobe Illustrator 25.0.0, SVG Export Plug-In . SVG Version: 6.00 Build 0)  -->
<svg version="1.1" id="Capa_1" xmlns="http://www.w3.org/2000/svg" xmlns:xlink="http://www.w3.org/1999/xlink" x="0px" y="0px"
	 viewBox="0 0 1280 800" style="enable-background:new 0 0 1280 800;" xml:space="preserve">
<style type="text/css">
	.st0{fill:#BAB5FF;}
</style>
<g>
	<g>
		<g>
			<g>
				<path class="st0" d="M1143.4,656.8c0-4,3.2-7.2,7.2-7.2s7.2,3.2,7.2,7.2s-3.2,7.2-7.2,7.2S1143.4,660.8,1143.4,656.8z
					 M1146,656.8c0,2.5,2.1,4.6,4.6,4.6s4.6-2.1,4.6-4.6s-2.1-4.6-4.6-4.6S1146,654.3,1146,656.8z"/>
			</g>
			<g>
				<path class="st0" d="M1192.7,57.4c0-4,3.2-7.2,7.2-7.2s7.2,3.2,7.2,7.2s-3.2,7.2-7.2,7.2C1196,64.7,1192.7,61.4,1192.7,57.4z
					 M1195.4,57.4c0,2.5,2.1,4.6,4.6,4.6s4.6-2.1,4.6-4.6s-2.1-4.6-4.6-4.6C1197.4,52.9,1195.4,54.9,1195.4,57.4z"/>
			</g>
			<g>
				<path class="st0" d="M43.7,675.8c0-4,3.2-7.2,7.2-7.2s7.2,3.2,7.2,7.2s-3.2,7.2-7.2,7.2S43.7,679.8,43.7,675.8z M46.3,675.8
					c0,2.5,2.1,4.6,4.6,4.6s4.6-2.1,4.6-4.6s-2.1-4.6-4.6-4.6C48.4,671.3,46.3,673.3,46.3,675.8z"/>
			</g>
			<g>
				<path class="st0" d="M69.6,440.8c0-4,3.2-7.2,7.2-7.2s7.2,3.2,7.2,7.2s-3.2,7.2-7.2,7.2C72.8,448,69.6,444.8,69.6,440.8z
					 M72.2,440.8c0,2.5,2.1,4.6,4.6,4.6s4.6-2.1,4.6-4.6s-2.1-4.6-4.6-4.6C74.3,436.2,72.2,438.3,72.2,440.8z"/>
			</g>
			<circle class="st0" cx="1231.2" cy="746.6" r="2.6"/>
			<circle class="st0" cx="1138.3" cy="534.1" r="2.6"/>
			<circle class="st0" cx="86.2" cy="628" r="2.6"/>
			<circle class="st0" cx="163.2" cy="744" r="2.6"/>
			<circle class="st0" cx="1153.7" cy="150.1" r="2.6"/>
			<circle class="st0" cx="43.6" cy="98.6" r="2.6"/>
			<g>
				<path class="st0" d="M107.7,304.7c2.8,2.8,2.8,7.4,0,10.2c-2.8,2.8-7.4,2.8-10.2,0c-2.8-2.8-2.8-7.4,0-10.2
					S104.9,301.9,107.7,304.7z M105.8,306.6c-1.8-1.8-4.7-1.8-6.5,0s-1.8,4.7,0,6.5s4.7,1.8,6.5,0
					C107.6,311.3,107.6,308.4,105.8,306.6z"/>
			</g>
			<g>
				<path class="st0" d="M1212.3,360.3c2.8,2.8,2.8,7.4,0,10.2c-2.8,2.8-7.4,2.8-10.2,0c-2.8-2.8-2.8-7.4,0-10.2
					C1204.9,357.5,1209.5,357.5,1212.3,360.3z M1210.5,362.2c-1.8-1.8-4.7-1.8-6.5,0s-1.8,4.7,0,6.5s4.7,1.8,6.5,0
					C1212.2,366.9,1212.2,364,1210.5,362.2z"/>
			</g>
			<circle class="st0" cx="79.7" cy="208.1" r="2.6"/>
			<circle class="st0" cx="99.9" cy="59.1" r="2.6"/>
		</g>
	</g>
</g>
</svg>
